<svg width="221" height="12" viewBox="0 0 221 12" fill="none" xmlns="http://www.w3.org/2000/svg">
<path d="M5.558 1.144C6.50067 1.144 7.34067 1.35867 8.078 1.788C8.81533 2.208 9.38467 2.796 9.786 3.552C10.1967 4.29867 10.402 5.15267 10.402 6.114C10.402 7.07533 10.1967 7.934 9.786 8.69C9.38467 9.43667 8.81533 10.0247 8.078 10.454C7.34067 10.874 6.50067 11.084 5.558 11.084C4.606 11.084 3.76133 10.874 3.024 10.454C2.28667 10.0247 1.71267 9.43667 1.302 8.69C0.891333 7.934 0.686 7.07533 0.686 6.114C0.686 5.15267 0.891333 4.29867 1.302 3.552C1.71267 2.796 2.28667 2.208 3.024 1.788C3.76133 1.35867 4.606 1.144 5.558 1.144ZM5.558 1.704C4.69 1.704 3.934 1.89067 3.29 2.264C2.646 2.628 2.15133 3.14133 1.806 3.804C1.46067 4.46667 1.288 5.23667 1.288 6.114C1.288 6.982 1.46067 7.752 1.806 8.424C2.15133 9.08667 2.646 9.60467 3.29 9.978C3.934 10.3513 4.69 10.538 5.558 10.538C6.41667 10.538 7.16333 10.3513 7.798 9.978C8.442 9.60467 8.93667 9.08667 9.282 8.424C9.62733 7.752 9.8 6.982 9.8 6.114C9.8 5.23667 9.62733 4.46667 9.282 3.804C8.93667 3.14133 8.442 2.628 7.798 2.264C7.16333 1.89067 6.41667 1.704 5.558 1.704ZM5.53 2.866C4.97 2.866 4.45667 2.99667 3.99 3.258C3.53267 3.51933 3.16867 3.89733 2.898 4.392C2.62733 4.87733 2.492 5.44667 2.492 6.1C2.492 6.75333 2.62733 7.32733 2.898 7.822C3.16867 8.30733 3.53267 8.68533 3.99 8.956C4.45667 9.21733 4.97 9.348 5.53 9.348C6.23 9.348 6.83667 9.16133 7.35 8.788C7.86333 8.40533 8.21333 7.89667 8.4 7.262H7.224C6.944 8.03667 6.37933 8.424 5.53 8.424C4.97 8.424 4.51267 8.22333 4.158 7.822C3.80333 7.42067 3.626 6.85133 3.626 6.114C3.626 5.36733 3.80333 4.79333 4.158 4.392C4.51267 3.99067 4.97 3.79 5.53 3.79C5.94067 3.79 6.29533 3.89267 6.594 4.098C6.89267 4.294 7.10267 4.57867 7.224 4.952H8.4C8.22267 4.28933 7.87733 3.776 7.364 3.412C6.85067 3.048 6.23933 2.866 5.53 2.866ZM22.4223 4.098C22.4223 4.91 22.1423 5.58667 21.5823 6.128C21.0316 6.66 20.187 6.926 19.0483 6.926H17.1723V11H15.8983V1.242H19.0483C20.1496 1.242 20.985 1.508 21.5543 2.04C22.133 2.572 22.4223 3.258 22.4223 4.098ZM19.0483 5.876C19.7576 5.876 20.2803 5.722 20.6163 5.414C20.9523 5.106 21.1203 4.66733 21.1203 4.098C21.1203 2.894 20.4296 2.292 19.0483 2.292H17.1723V5.876H19.0483ZM25.2797 4.574C25.5037 4.13533 25.8211 3.79467 26.2317 3.552C26.6517 3.30933 27.1604 3.188 27.7577 3.188V4.504H27.4217C25.9937 4.504 25.2797 5.27867 25.2797 6.828V11H24.0057V3.328H25.2797V4.574ZM32.5744 11.126C31.8557 11.126 31.2024 10.9627 30.6144 10.636C30.0357 10.3093 29.5784 9.84733 29.2424 9.25C28.9157 8.64333 28.7524 7.94333 28.7524 7.15C28.7524 6.366 28.9204 5.67533 29.2564 5.078C29.6017 4.47133 30.0684 4.00933 30.6564 3.692C31.2444 3.36533 31.9024 3.202 32.6304 3.202C33.3584 3.202 34.0164 3.36533 34.6044 3.692C35.1924 4.00933 35.6544 4.46667 35.9904 5.064C36.3357 5.66133 36.5084 6.35667 36.5084 7.15C36.5084 7.94333 36.3311 8.64333 35.9764 9.25C35.6311 9.84733 35.1597 10.3093 34.5624 10.636C33.9651 10.9627 33.3024 11.126 32.5744 11.126ZM32.5744 10.006C33.0317 10.006 33.4611 9.89867 33.8624 9.684C34.2637 9.46933 34.5857 9.14733 34.8284 8.718C35.0804 8.28867 35.2064 7.766 35.2064 7.15C35.2064 6.534 35.0851 6.01133 34.8424 5.582C34.5997 5.15267 34.2824 4.83533 33.8904 4.63C33.4984 4.41533 33.0737 4.308 32.6164 4.308C32.1497 4.308 31.7204 4.41533 31.3284 4.63C30.9457 4.83533 30.6377 5.15267 30.4044 5.582C30.1711 6.01133 30.0544 6.534 30.0544 7.15C30.0544 7.77533 30.1664 8.30267 30.3904 8.732C30.6237 9.16133 30.9317 9.48333 31.3144 9.698C31.6971 9.90333 32.1171 10.006 32.5744 10.006ZM37.7075 7.15C37.7075 6.35667 37.8661 5.666 38.1835 5.078C38.5008 4.48067 38.9395 4.01867 39.4995 3.692C40.0688 3.36533 40.7175 3.202 41.4455 3.202C42.3881 3.202 43.1628 3.43067 43.7695 3.888C44.3855 4.34533 44.7915 4.98 44.9875 5.792H43.6155C43.4848 5.32533 43.2281 4.95667 42.8455 4.686C42.4721 4.41533 42.0055 4.28 41.4455 4.28C40.7175 4.28 40.1295 4.532 39.6815 5.036C39.2335 5.53067 39.0095 6.23533 39.0095 7.15C39.0095 8.074 39.2335 8.788 39.6815 9.292C40.1295 9.796 40.7175 10.048 41.4455 10.048C42.0055 10.048 42.4721 9.91733 42.8455 9.656C43.2188 9.39467 43.4755 9.02133 43.6155 8.536H44.9875C44.7821 9.32 44.3715 9.95 43.7555 10.426C43.1395 10.8927 42.3695 11.126 41.4455 11.126C40.7175 11.126 40.0688 10.9627 39.4995 10.636C38.9395 10.3093 38.5008 9.84733 38.1835 9.25C37.8661 8.65267 37.7075 7.95267 37.7075 7.15ZM53.6874 6.87C53.6874 7.11267 53.6734 7.36933 53.6454 7.64H47.5134C47.56 8.396 47.8167 8.98867 48.2834 9.418C48.7594 9.838 49.3334 10.048 50.0054 10.048C50.556 10.048 51.0134 9.922 51.3774 9.67C51.7507 9.40867 52.012 9.06333 52.1614 8.634H53.5334C53.328 9.37133 52.9174 9.97333 52.3014 10.44C51.6854 10.8973 50.92 11.126 50.0054 11.126C49.2774 11.126 48.624 10.9627 48.0454 10.636C47.476 10.3093 47.028 9.84733 46.7014 9.25C46.3747 8.64333 46.2114 7.94333 46.2114 7.15C46.2114 6.35667 46.37 5.66133 46.6874 5.064C47.0047 4.46667 47.448 4.00933 48.0174 3.692C48.596 3.36533 49.2587 3.202 50.0054 3.202C50.7334 3.202 51.3774 3.36067 51.9374 3.678C52.4974 3.99533 52.9267 4.434 53.2254 4.994C53.5334 5.54467 53.6874 6.17 53.6874 6.87ZM52.3714 6.604C52.3714 6.11867 52.264 5.70333 52.0494 5.358C51.8347 5.00333 51.5407 4.73733 51.1674 4.56C50.8034 4.37333 50.3974 4.28 49.9494 4.28C49.3054 4.28 48.7547 4.48533 48.2974 4.896C47.8494 5.30667 47.5927 5.876 47.5274 6.604H52.3714ZM58.085 11.126C57.497 11.126 56.9697 11.028 56.503 10.832C56.0363 10.6267 55.6677 10.3467 55.397 9.992C55.1263 9.628 54.977 9.21267 54.949 8.746H56.265C56.3023 9.12867 56.4797 9.44133 56.797 9.684C57.1237 9.92667 57.5483 10.048 58.071 10.048C58.5563 10.048 58.939 9.94067 59.219 9.726C59.499 9.51133 59.639 9.24067 59.639 8.914C59.639 8.578 59.4897 8.33067 59.191 8.172C58.8923 8.004 58.4303 7.84067 57.805 7.682C57.2357 7.53267 56.769 7.38333 56.405 7.234C56.0503 7.07533 55.7423 6.84667 55.481 6.548C55.229 6.24 55.103 5.83867 55.103 5.344C55.103 4.952 55.2197 4.59267 55.453 4.266C55.6863 3.93933 56.0177 3.68267 56.447 3.496C56.8763 3.3 57.3663 3.202 57.917 3.202C58.7663 3.202 59.4523 3.41667 59.975 3.846C60.4977 4.27533 60.7777 4.86333 60.815 5.61H59.541C59.513 5.20867 59.3497 4.88667 59.051 4.644C58.7617 4.40133 58.3697 4.28 57.875 4.28C57.4177 4.28 57.0537 4.378 56.783 4.574C56.5123 4.77 56.377 5.02667 56.377 5.344C56.377 5.596 56.4563 5.806 56.615 5.974C56.783 6.13267 56.9883 6.26333 57.231 6.366C57.483 6.45933 57.8283 6.56667 58.267 6.688C58.8177 6.83733 59.2657 6.98667 59.611 7.136C59.9563 7.276 60.2503 7.49067 60.493 7.78C60.745 8.06933 60.8757 8.44733 60.885 8.914C60.885 9.334 60.7683 9.712 60.535 10.048C60.3017 10.384 59.9703 10.65 59.541 10.846C59.121 11.0327 58.6357 11.126 58.085 11.126ZM65.3995 11.126C64.8115 11.126 64.2841 11.028 63.8175 10.832C63.3508 10.6267 62.9821 10.3467 62.7115 9.992C62.4408 9.628 62.2915 9.21267 62.2635 8.746H63.5795C63.6168 9.12867 63.7941 9.44133 64.1115 9.684C64.4381 9.92667 64.8628 10.048 65.3855 10.048C65.8708 10.048 66.2535 9.94067 66.5335 9.726C66.8135 9.51133 66.9535 9.24067 66.9535 8.914C66.9535 8.578 66.8041 8.33067 66.5055 8.172C66.2068 8.004 65.7448 7.84067 65.1195 7.682C64.5501 7.53267 64.0835 7.38333 63.7195 7.234C63.3648 7.07533 63.0568 6.84667 62.7955 6.548C62.5435 6.24 62.4175 5.83867 62.4175 5.344C62.4175 4.952 62.5341 4.59267 62.7675 4.266C63.0008 3.93933 63.3321 3.68267 63.7615 3.496C64.1908 3.3 64.6808 3.202 65.2315 3.202C66.0808 3.202 66.7668 3.41667 67.2895 3.846C67.8121 4.27533 68.0921 4.86333 68.1295 5.61H66.8555C66.8275 5.20867 66.6641 4.88667 66.3655 4.644C66.0761 4.40133 65.6841 4.28 65.1895 4.28C64.7321 4.28 64.3681 4.378 64.0975 4.574C63.8268 4.77 63.6915 5.02667 63.6915 5.344C63.6915 5.596 63.7708 5.806 63.9295 5.974C64.0975 6.13267 64.3028 6.26333 64.5455 6.366C64.7975 6.45933 65.1428 6.56667 65.5815 6.688C66.1321 6.83733 66.5801 6.98667 66.9255 7.136C67.2708 7.276 67.5648 7.49067 67.8075 7.78C68.0595 8.06933 68.1901 8.44733 68.1995 8.914C68.1995 9.334 68.0828 9.712 67.8495 10.048C67.6161 10.384 67.2848 10.65 66.8555 10.846C66.4355 11.0327 65.9501 11.126 65.3995 11.126ZM73.3439 11.126C72.6253 11.126 71.9719 10.9627 71.3839 10.636C70.8053 10.3093 70.3479 9.84733 70.0119 9.25C69.6853 8.64333 69.5219 7.94333 69.5219 7.15C69.5219 6.366 69.6899 5.67533 70.0259 5.078C70.3713 4.47133 70.8379 4.00933 71.4259 3.692C72.0139 3.36533 72.6719 3.202 73.3999 3.202C74.1279 3.202 74.7859 3.36533 75.3739 3.692C75.9619 4.00933 76.4239 4.46667 76.7599 5.064C77.1053 5.66133 77.2779 6.35667 77.2779 7.15C77.2779 7.94333 77.1006 8.64333 76.7459 9.25C76.4006 9.84733 75.9293 10.3093 75.3319 10.636C74.7346 10.9627 74.0719 11.126 73.3439 11.126ZM73.3439 10.006C73.8013 10.006 74.2306 9.89867 74.6319 9.684C75.0333 9.46933 75.3553 9.14733 75.5979 8.718C75.8499 8.28867 75.9759 7.766 75.9759 7.15C75.9759 6.534 75.8546 6.01133 75.6119 5.582C75.3693 5.15267 75.0519 4.83533 74.6599 4.63C74.2679 4.41533 73.8433 4.308 73.3859 4.308C72.9193 4.308 72.4899 4.41533 72.0979 4.63C71.7153 4.83533 71.4073 5.15267 71.1739 5.582C70.9406 6.01133 70.8239 6.534 70.8239 7.15C70.8239 7.77533 70.9359 8.30267 71.1599 8.732C71.3933 9.16133 71.7013 9.48333 72.0839 9.698C72.4666 9.90333 72.8866 10.006 73.3439 10.006ZM82.2094 7.136C82.2094 6.352 82.3681 5.666 82.6854 5.078C83.0028 4.48067 83.4368 4.01867 83.9874 3.692C84.5474 3.36533 85.1728 3.202 85.8634 3.202C86.4608 3.202 87.0161 3.342 87.5294 3.622C88.0428 3.89267 88.4348 4.252 88.7054 4.7V0.64H89.9934V11H88.7054V9.558C88.4534 10.0153 88.0801 10.3933 87.5854 10.692C87.0908 10.9813 86.5121 11.126 85.8494 11.126C85.1681 11.126 84.5474 10.958 83.9874 10.622C83.4368 10.286 83.0028 9.81467 82.6854 9.208C82.3681 8.60133 82.2094 7.91067 82.2094 7.136ZM88.7054 7.15C88.7054 6.57133 88.5888 6.06733 88.3554 5.638C88.1221 5.20867 87.8048 4.882 87.4034 4.658C87.0114 4.42467 86.5774 4.308 86.1014 4.308C85.6254 4.308 85.1914 4.42 84.7994 4.644C84.4074 4.868 84.0948 5.19467 83.8614 5.624C83.6281 6.05333 83.5114 6.55733 83.5114 7.136C83.5114 7.724 83.6281 8.23733 83.8614 8.676C84.0948 9.10533 84.4074 9.43667 84.7994 9.67C85.1914 9.894 85.6254 10.006 86.1014 10.006C86.5774 10.006 87.0114 9.894 87.4034 9.67C87.8048 9.43667 88.1221 9.10533 88.3554 8.676C88.5888 8.23733 88.7054 7.72867 88.7054 7.15ZM99.1464 6.87C99.1464 7.11267 99.1324 7.36933 99.1044 7.64H92.9724C93.019 8.396 93.2757 8.98867 93.7424 9.418C94.2184 9.838 94.7924 10.048 95.4644 10.048C96.015 10.048 96.4724 9.922 96.8364 9.67C97.2097 9.40867 97.471 9.06333 97.6204 8.634H98.9924C98.787 9.37133 98.3764 9.97333 97.7604 10.44C97.1444 10.8973 96.379 11.126 95.4644 11.126C94.7364 11.126 94.083 10.9627 93.5044 10.636C92.935 10.3093 92.487 9.84733 92.1604 9.25C91.8337 8.64333 91.6704 7.94333 91.6704 7.15C91.6704 6.35667 91.829 5.66133 92.1464 5.064C92.4637 4.46667 92.907 4.00933 93.4764 3.692C94.055 3.36533 94.7177 3.202 95.4644 3.202C96.1924 3.202 96.8364 3.36067 97.3964 3.678C97.9564 3.99533 98.3857 4.434 98.6844 4.994C98.9924 5.54467 99.1464 6.17 99.1464 6.87ZM97.8304 6.604C97.8304 6.11867 97.723 5.70333 97.5084 5.358C97.2937 5.00333 96.9997 4.73733 96.6264 4.56C96.2624 4.37333 95.8564 4.28 95.4084 4.28C94.7644 4.28 94.2137 4.48533 93.7564 4.896C93.3084 5.30667 93.0517 5.876 92.9864 6.604H97.8304ZM110.566 1.242V2.278H107.906V11H106.632V2.278H103.958V1.242H110.566ZM113.409 4.574C113.633 4.13533 113.95 3.79467 114.361 3.552C114.781 3.30933 115.289 3.188 115.887 3.188V4.504H115.551C114.123 4.504 113.409 5.27867 113.409 6.828V11H112.135V3.328H113.409V4.574ZM116.881 7.136C116.881 6.352 117.04 5.666 117.357 5.078C117.675 4.48067 118.109 4.01867 118.659 3.692C119.219 3.36533 119.84 3.202 120.521 3.202C121.193 3.202 121.777 3.34667 122.271 3.636C122.766 3.92533 123.135 4.28933 123.377 4.728V3.328H124.665V11H123.377V9.572C123.125 10.02 122.747 10.3933 122.243 10.692C121.749 10.9813 121.17 11.126 120.507 11.126C119.826 11.126 119.21 10.958 118.659 10.622C118.109 10.286 117.675 9.81467 117.357 9.208C117.04 8.60133 116.881 7.91067 116.881 7.136ZM123.377 7.15C123.377 6.57133 123.261 6.06733 123.027 5.638C122.794 5.20867 122.477 4.882 122.075 4.658C121.683 4.42467 121.249 4.308 120.773 4.308C120.297 4.308 119.863 4.42 119.471 4.644C119.079 4.868 118.767 5.19467 118.533 5.624C118.3 6.05333 118.183 6.55733 118.183 7.136C118.183 7.724 118.3 8.23733 118.533 8.676C118.767 9.10533 119.079 9.43667 119.471 9.67C119.863 9.894 120.297 10.006 120.773 10.006C121.249 10.006 121.683 9.894 122.075 9.67C122.477 9.43667 122.794 9.10533 123.027 8.676C123.261 8.23733 123.377 7.72867 123.377 7.15ZM127.476 2.082C127.234 2.082 127.028 1.998 126.86 1.83C126.692 1.662 126.608 1.45667 126.608 1.214C126.608 0.971333 126.692 0.766 126.86 0.598C127.028 0.43 127.234 0.345999 127.476 0.345999C127.71 0.345999 127.906 0.43 128.064 0.598C128.232 0.766 128.316 0.971333 128.316 1.214C128.316 1.45667 128.232 1.662 128.064 1.83C127.906 1.998 127.71 2.082 127.476 2.082ZM128.092 3.328V11H126.818V3.328H128.092ZM134.002 3.188C134.935 3.188 135.691 3.47267 136.27 4.042C136.848 4.602 137.138 5.414 137.138 6.478V11H135.878V6.66C135.878 5.89467 135.686 5.31133 135.304 4.91C134.921 4.49933 134.398 4.294 133.736 4.294C133.064 4.294 132.527 4.504 132.126 4.924C131.734 5.344 131.538 5.95533 131.538 6.758V11H130.264V3.328H131.538V4.42C131.79 4.028 132.13 3.72467 132.56 3.51C132.998 3.29533 133.479 3.188 134.002 3.188ZM146.219 6.87C146.219 7.11267 146.205 7.36933 146.177 7.64H140.045C140.091 8.396 140.348 8.98867 140.815 9.418C141.291 9.838 141.865 10.048 142.537 10.048C143.087 10.048 143.545 9.922 143.909 9.67C144.282 9.40867 144.543 9.06333 144.693 8.634H146.065C145.859 9.37133 145.449 9.97333 144.833 10.44C144.217 10.8973 143.451 11.126 142.537 11.126C141.809 11.126 141.155 10.9627 140.577 10.636C140.007 10.3093 139.559 9.84733 139.233 9.25C138.906 8.64333 138.743 7.94333 138.743 7.15C138.743 6.35667 138.901 5.66133 139.219 5.064C139.536 4.46667 139.979 4.00933 140.549 3.692C141.127 3.36533 141.79 3.202 142.537 3.202C143.265 3.202 143.909 3.36067 144.469 3.678C145.029 3.99533 145.458 4.434 145.757 4.994C146.065 5.54467 146.219 6.17 146.219 6.87ZM144.903 6.604C144.903 6.11867 144.795 5.70333 144.581 5.358C144.366 5.00333 144.072 4.73733 143.699 4.56C143.335 4.37333 142.929 4.28 142.481 4.28C141.837 4.28 141.286 4.48533 140.829 4.896C140.381 5.30667 140.124 5.876 140.059 6.604H144.903ZM154.9 6.87C154.9 7.11267 154.886 7.36933 154.858 7.64H148.726C148.773 8.396 149.03 8.98867 149.496 9.418C149.972 9.838 150.546 10.048 151.218 10.048C151.769 10.048 152.226 9.922 152.59 9.67C152.964 9.40867 153.225 9.06333 153.374 8.634H154.746C154.541 9.37133 154.13 9.97333 153.514 10.44C152.898 10.8973 152.133 11.126 151.218 11.126C150.49 11.126 149.837 10.9627 149.258 10.636C148.689 10.3093 148.241 9.84733 147.914 9.25C147.588 8.64333 147.424 7.94333 147.424 7.15C147.424 6.35667 147.583 5.66133 147.9 5.064C148.218 4.46667 148.661 4.00933 149.23 3.692C149.809 3.36533 150.472 3.202 151.218 3.202C151.946 3.202 152.59 3.36067 153.15 3.678C153.71 3.99533 154.14 4.434 154.438 4.994C154.746 5.54467 154.9 6.17 154.9 6.87ZM153.584 6.604C153.584 6.11867 153.477 5.70333 153.262 5.358C153.048 5.00333 152.754 4.73733 152.38 4.56C152.016 4.37333 151.61 4.28 151.162 4.28C150.518 4.28 149.968 4.48533 149.51 4.896C149.062 5.30667 148.806 5.876 148.74 6.604H153.584ZM162.134 1.228V7.276C162.134 7.93867 162.307 8.44733 162.652 8.802C162.998 9.14733 163.483 9.32 164.108 9.32C164.743 9.32 165.233 9.14733 165.578 8.802C165.924 8.44733 166.096 7.93867 166.096 7.276V1.228H168.07V7.262C168.07 8.09267 167.888 8.79733 167.524 9.376C167.17 9.94533 166.689 10.3747 166.082 10.664C165.485 10.9533 164.818 11.098 164.08 11.098C163.352 11.098 162.69 10.9533 162.092 10.664C161.504 10.3747 161.038 9.94533 160.692 9.376C160.347 8.79733 160.174 8.09267 160.174 7.262V1.228H162.134ZM174.262 3.132C175.186 3.132 175.933 3.426 176.502 4.014C177.071 4.59267 177.356 5.40467 177.356 6.45V11H175.396V6.716C175.396 6.1 175.242 5.62867 174.934 5.302C174.626 4.966 174.206 4.798 173.674 4.798C173.133 4.798 172.703 4.966 172.386 5.302C172.078 5.62867 171.924 6.1 171.924 6.716V11H169.964V3.244H171.924V4.21C172.185 3.874 172.517 3.61267 172.918 3.426C173.329 3.23 173.777 3.132 174.262 3.132ZM186.43 6.954C186.43 7.234 186.411 7.486 186.374 7.71H180.704C180.751 8.27 180.947 8.70867 181.292 9.026C181.637 9.34333 182.062 9.502 182.566 9.502C183.294 9.502 183.812 9.18933 184.12 8.564H186.234C186.01 9.31067 185.581 9.92667 184.946 10.412C184.311 10.888 183.532 11.126 182.608 11.126C181.861 11.126 181.189 10.9627 180.592 10.636C180.004 10.3 179.542 9.82867 179.206 9.222C178.879 8.61533 178.716 7.91533 178.716 7.122C178.716 6.31933 178.879 5.61467 179.206 5.008C179.533 4.40133 179.99 3.93467 180.578 3.608C181.166 3.28133 181.843 3.118 182.608 3.118C183.345 3.118 184.003 3.27667 184.582 3.594C185.17 3.91133 185.623 4.364 185.94 4.952C186.267 5.53067 186.43 6.198 186.43 6.954ZM184.4 6.394C184.391 5.89 184.209 5.48867 183.854 5.19C183.499 4.882 183.065 4.728 182.552 4.728C182.067 4.728 181.656 4.87733 181.32 5.176C180.993 5.46533 180.793 5.87133 180.718 6.394H184.4ZM187.357 7.122C187.357 6.31933 187.52 5.61933 187.847 5.022C188.173 4.41533 188.626 3.94867 189.205 3.622C189.783 3.286 190.446 3.118 191.193 3.118C192.154 3.118 192.947 3.36067 193.573 3.846C194.207 4.322 194.632 4.994 194.847 5.862H192.733C192.621 5.526 192.429 5.26467 192.159 5.078C191.897 4.882 191.571 4.784 191.179 4.784C190.619 4.784 190.175 4.98933 189.849 5.4C189.522 5.80133 189.359 6.37533 189.359 7.122C189.359 7.85933 189.522 8.43333 189.849 8.844C190.175 9.24533 190.619 9.446 191.179 9.446C191.972 9.446 192.49 9.09133 192.733 8.382H194.847C194.632 9.222 194.207 9.88933 193.573 10.384C192.938 10.8787 192.145 11.126 191.193 11.126C190.446 11.126 189.783 10.9627 189.205 10.636C188.626 10.3 188.173 9.83333 187.847 9.236C187.52 8.62933 187.357 7.92467 187.357 7.122ZM198.564 4.854V8.606C198.564 8.86733 198.625 9.05867 198.746 9.18C198.877 9.292 199.092 9.348 199.39 9.348H200.3V11H199.068C197.416 11 196.59 10.1973 196.59 8.592V4.854H195.666V3.244H196.59V1.326H198.564V3.244H200.3V4.854H198.564ZM210.744 1.228V8.088C210.744 9.04 210.469 9.782 209.918 10.314C209.367 10.8367 208.63 11.098 207.706 11.098C206.773 11.098 206.017 10.8273 205.438 10.286C204.869 9.74467 204.584 8.98867 204.584 8.018H206.544C206.553 8.438 206.651 8.76467 206.838 8.998C207.034 9.23133 207.314 9.348 207.678 9.348C208.033 9.348 208.303 9.236 208.49 9.012C208.677 8.788 208.77 8.48 208.77 8.088V1.228H210.744ZM214.99 4.448C215.242 4.03733 215.569 3.71533 215.97 3.482C216.381 3.24867 216.848 3.132 217.37 3.132V5.19H216.852C216.236 5.19 215.77 5.33467 215.452 5.624C215.144 5.91333 214.99 6.41733 214.99 7.136V11H213.03V3.244H214.99V4.448ZM219.559 11.098C219.204 11.098 218.91 10.9907 218.677 10.776C218.453 10.552 218.341 10.2767 218.341 9.95C218.341 9.62333 218.453 9.35267 218.677 9.138C218.91 8.914 219.204 8.802 219.559 8.802C219.904 8.802 220.189 8.914 220.413 9.138C220.637 9.35267 220.749 9.62333 220.749 9.95C220.749 10.2767 220.637 10.552 220.413 10.776C220.189 10.9907 219.904 11.098 219.559 11.098Z" fill="white"/>
<a href="https://unect.com.br">
<rect fill="black" fill-opacity="0" x="159.236" width="62.1283" height="21"/>
</a>
</svg>
