<svg width="205" height="72" viewBox="0 0 205 72" fill="none" xmlns="http://www.w3.org/2000/svg">
<path d="M25.953 22.564V46H18.771V42.808C18.043 43.844 17.049 44.684 15.789 45.328C14.557 45.944 13.185 46.252 11.673 46.252C9.88103 46.252 8.29903 45.86 6.92703 45.076C5.55503 44.264 4.49103 43.102 3.73503 41.59C2.97903 40.078 2.60103 38.3 2.60103 36.256V22.564H9.74103V35.29C9.74103 36.858 10.147 38.076 10.959 38.944C11.771 39.812 12.863 40.246 14.235 40.246C15.635 40.246 16.741 39.812 17.553 38.944C18.365 38.076 18.771 36.858 18.771 35.29V22.564H25.953ZM52.3218 16.516V22.27H44.5098V46H37.3278V22.27H29.5158V16.516H52.3218ZM54.4983 34.24C54.4983 31.832 54.9463 29.718 55.8423 27.898C56.7663 26.078 58.0123 24.678 59.5803 23.698C61.1483 22.718 62.8983 22.228 64.8303 22.228C66.4823 22.228 67.9243 22.564 69.1563 23.236C70.4163 23.908 71.3823 24.79 72.0543 25.882V22.564H79.2363V46H72.0543V42.682C71.3543 43.774 70.3743 44.656 69.1143 45.328C67.8823 46 66.4403 46.336 64.7883 46.336C62.8843 46.336 61.1483 45.846 59.5803 44.866C58.0123 43.858 56.7663 42.444 55.8423 40.624C54.9463 38.776 54.4983 36.648 54.4983 34.24ZM72.0543 34.282C72.0543 32.49 71.5503 31.076 70.5423 30.04C69.5623 29.004 68.3583 28.486 66.9303 28.486C65.5023 28.486 64.2843 29.004 63.2763 30.04C62.2963 31.048 61.8063 32.448 61.8063 34.24C61.8063 36.032 62.2963 37.46 63.2763 38.524C64.2843 39.56 65.5023 40.078 66.9303 40.078C68.3583 40.078 69.5623 39.56 70.5423 38.524C71.5503 37.488 72.0543 36.074 72.0543 34.282ZM93.9661 46.336C91.9221 46.336 90.1021 45.986 88.5061 45.286C86.9101 44.586 85.6501 43.634 84.7261 42.43C83.8021 41.198 83.2841 39.826 83.1721 38.314H90.2701C90.3541 39.126 90.7321 39.784 91.4041 40.288C92.0761 40.792 92.9021 41.044 93.8821 41.044C94.7781 41.044 95.4641 40.876 95.9401 40.54C96.4441 40.176 96.6961 39.714 96.6961 39.154C96.6961 38.482 96.3461 37.992 95.6461 37.684C94.9461 37.348 93.8121 36.984 92.2441 36.592C90.5641 36.2 89.1641 35.794 88.0441 35.374C86.9241 34.926 85.9581 34.24 85.1461 33.316C84.3341 32.364 83.9281 31.09 83.9281 29.494C83.9281 28.15 84.2921 26.932 85.0201 25.84C85.7761 24.72 86.8681 23.838 88.2961 23.194C89.7521 22.55 91.4741 22.228 93.4621 22.228C96.4021 22.228 98.7121 22.956 100.392 24.412C102.1 25.868 103.08 27.8 103.332 30.208H96.6961C96.5841 29.396 96.2201 28.752 95.6041 28.276C95.0161 27.8 94.2321 27.562 93.2521 27.562C92.4121 27.562 91.7681 27.73 91.3201 28.066C90.8721 28.374 90.6481 28.808 90.6481 29.368C90.6481 30.04 90.9981 30.544 91.6981 30.88C92.4261 31.216 93.5461 31.552 95.0581 31.888C96.7941 32.336 98.2081 32.784 99.3001 33.232C100.392 33.652 101.344 34.352 102.156 35.332C102.996 36.284 103.43 37.572 103.458 39.196C103.458 40.568 103.066 41.8 102.282 42.892C101.526 43.956 100.42 44.796 98.9641 45.412C97.5361 46.028 95.8701 46.336 93.9661 46.336ZM122.174 46L115.034 36.172V46H107.852V14.92H115.034V32.098L122.132 22.564H130.994L121.25 34.324L131.078 46H122.174ZM142.253 23.992C142.365 20.996 143.345 18.686 145.193 17.062C147.041 15.438 149.547 14.626 152.711 14.626C154.811 14.626 156.603 14.99 158.087 15.718C159.599 16.446 160.733 17.44 161.489 18.7C162.273 19.96 162.665 21.374 162.665 22.942C162.665 24.79 162.203 26.302 161.279 27.478C160.355 28.626 159.277 29.41 158.045 29.83V29.998C159.641 30.53 160.901 31.412 161.825 32.644C162.749 33.876 163.211 35.458 163.211 37.39C163.211 39.126 162.805 40.666 161.993 42.01C161.209 43.326 160.047 44.362 158.507 45.118C156.995 45.874 155.189 46.252 153.089 46.252C149.729 46.252 147.041 45.426 145.025 43.774C143.037 42.122 141.987 39.63 141.875 36.298H148.847C148.875 37.53 149.225 38.51 149.897 39.238C150.569 39.938 151.549 40.288 152.837 40.288C153.929 40.288 154.769 39.98 155.357 39.364C155.973 38.72 156.281 37.88 156.281 36.844C156.281 35.5 155.847 34.534 154.979 33.946C154.139 33.33 152.781 33.022 150.905 33.022H149.561V27.184H150.905C152.333 27.184 153.481 26.946 154.349 26.47C155.245 25.966 155.693 25.084 155.693 23.824C155.693 22.816 155.413 22.032 154.853 21.472C154.293 20.912 153.523 20.632 152.543 20.632C151.479 20.632 150.681 20.954 150.149 21.598C149.645 22.242 149.351 23.04 149.267 23.992H142.253ZM171.505 46.336C170.245 46.336 169.209 45.972 168.397 45.244C167.613 44.488 167.221 43.564 167.221 42.472C167.221 41.352 167.613 40.414 168.397 39.658C169.209 38.902 170.245 38.524 171.505 38.524C172.737 38.524 173.745 38.902 174.529 39.658C175.341 40.414 175.747 41.352 175.747 42.472C175.747 43.564 175.341 44.488 174.529 45.244C173.745 45.972 172.737 46.336 171.505 46.336ZM179.285 30.25C179.285 25.434 180.209 21.64 182.057 18.868C183.933 16.096 186.943 14.71 191.087 14.71C195.231 14.71 198.227 16.096 200.075 18.868C201.951 21.64 202.889 25.434 202.889 30.25C202.889 35.122 201.951 38.944 200.075 41.716C198.227 44.488 195.231 45.874 191.087 45.874C186.943 45.874 183.933 44.488 182.057 41.716C180.209 38.944 179.285 35.122 179.285 30.25ZM195.833 30.25C195.833 27.422 195.525 25.252 194.909 23.74C194.293 22.2 193.019 21.43 191.087 21.43C189.155 21.43 187.881 22.2 187.265 23.74C186.649 25.252 186.341 27.422 186.341 30.25C186.341 32.154 186.453 33.736 186.677 34.996C186.901 36.228 187.349 37.236 188.021 38.02C188.721 38.776 189.743 39.154 191.087 39.154C192.431 39.154 193.439 38.776 194.111 38.02C194.811 37.236 195.273 36.228 195.497 34.996C195.721 33.736 195.833 32.154 195.833 30.25Z" fill="#226ED8"/>
<path d="M188 71L18 71" stroke="#3B5F91" stroke-linecap="round"/>
</svg>
